<svg width="145" height="35" viewBox="0 0 145 35" fill="none" xmlns="http://www.w3.org/2000/svg">
<path d="M22.6877 0H13.5046V12.1528H0V20.5854H13.5046C21.3373 19.3453 22.6877 12.1528 22.6877 12.1528V0Z" fill="url(#paint0_linear_1103_6816)"/>
<path d="M13.7721 34.2266H22.6851V20.5857H37V12.4011H23.9019C22.1449 20.8337 13.7721 21.5777 13.7721 21.5777V34.2266Z" fill="url(#paint1_linear_1103_6816)"/>
<path d="M44.2569 8.05295H48.9649L53.9375 20.1846H54.1491L59.1217 8.05295H63.8297V26.1094H60.1268V14.3568H59.9769L55.3041 26.0212H52.7825L48.1097 14.3127H47.9598V26.1094H44.2569V8.05295ZM73.0762 26.3739C71.6831 26.3739 70.4841 26.0917 69.479 25.5275C68.4798 24.9573 67.7098 24.1521 67.169 23.1117C66.6283 22.0655 66.3579 20.8282 66.3579 19.3999C66.3579 18.0069 66.6283 16.7843 67.169 15.7322C67.7098 14.6801 68.471 13.8602 69.4525 13.2724C70.44 12.6846 71.5979 12.3907 72.9263 12.3907C73.8197 12.3907 74.6514 12.5347 75.4214 12.8227C76.1972 13.1049 76.8732 13.531 77.4492 14.1011C78.0311 14.6713 78.4837 15.3884 78.807 16.2524C79.1302 17.1106 79.2919 18.1156 79.2919 19.2677V20.2992H67.8567V17.9716H75.7564C75.7564 17.4309 75.6389 16.9519 75.4038 16.5345C75.1686 16.1172 74.8424 15.791 74.4251 15.5559C74.0137 15.3149 73.5346 15.1944 72.988 15.1944C72.4179 15.1944 71.9124 15.3267 71.4715 15.5912C71.0366 15.8498 70.6957 16.1995 70.4488 16.6403C70.2019 17.0753 70.0756 17.5602 70.0697 18.0951V20.308C70.0697 20.9781 70.1931 21.5571 70.44 22.0449C70.6927 22.5328 71.0483 22.9089 71.5068 23.1734C71.9653 23.4379 72.509 23.5702 73.1379 23.5702C73.5552 23.5702 73.9373 23.5114 74.284 23.3939C74.6308 23.2763 74.9277 23.1 75.1745 22.8649C75.4214 22.6298 75.6095 22.3417 75.7388 22.0008L79.2125 22.2301C79.0362 23.0647 78.6747 23.7935 78.1281 24.4166C77.5873 25.0337 76.8879 25.5157 76.0297 25.8625C75.1775 26.2034 74.1929 26.3739 73.0762 26.3739ZM86.7331 26.3298C85.7045 26.3298 84.7729 26.0653 83.9382 25.5363C83.1095 25.0014 82.4512 24.2167 81.9633 23.1823C81.4813 22.1419 81.2403 20.8664 81.2403 19.3558C81.2403 17.8041 81.4902 16.514 81.9898 15.4854C82.4894 14.4509 83.1536 13.6779 83.9823 13.1666C84.817 12.6493 85.7309 12.3907 86.7243 12.3907C87.4825 12.3907 88.1144 12.52 88.6199 12.7787C89.1312 13.0314 89.5427 13.3488 89.8542 13.7308C90.1716 14.107 90.4126 14.4773 90.5771 14.8417H90.6918V8.05295H94.4388V26.1094H90.7358V23.9405H90.5771C90.4008 24.3167 90.151 24.6899 89.8277 25.0602C89.5103 25.4246 89.096 25.7273 88.5846 25.9683C88.0791 26.2093 87.4619 26.3298 86.7331 26.3298ZM87.9233 23.341C88.5288 23.341 89.0401 23.1764 89.4574 22.8472C89.8806 22.5122 90.2039 22.0449 90.4273 21.4454C90.6565 20.8459 90.7711 20.1435 90.7711 19.3382C90.7711 18.533 90.6594 17.8335 90.4361 17.2399C90.2127 16.6462 89.8894 16.1877 89.4663 15.8645C89.0431 15.5412 88.5288 15.3796 87.9233 15.3796C87.3062 15.3796 86.786 15.5471 86.3628 15.8821C85.9396 16.2171 85.6193 16.6815 85.4018 17.2751C85.1843 17.8688 85.0756 18.5565 85.0756 19.3382C85.0756 20.1258 85.1843 20.8223 85.4018 21.4278C85.6251 22.0273 85.9455 22.4975 86.3628 22.8384C86.786 23.1734 87.3062 23.341 87.9233 23.341ZM97.5268 26.1094V12.5671H101.283V26.1094H97.5268ZM99.4136 10.8214C98.8552 10.8214 98.3762 10.6362 97.9765 10.2659C97.5827 9.88974 97.3858 9.4401 97.3858 8.91698C97.3858 8.39974 97.5827 7.95597 97.9765 7.58567C98.3762 7.20949 98.8552 7.0214 99.4136 7.0214C99.972 7.0214 100.448 7.20949 100.842 7.58567C101.242 7.95597 101.441 8.39974 101.441 8.91698C101.441 9.4401 101.242 9.88974 100.842 10.2659C100.448 10.6362 99.972 10.8214 99.4136 10.8214ZM104.362 26.1094V8.05295H111.592C112.92 8.05295 114.028 8.24985 114.915 8.64366C115.803 9.03747 116.47 9.5841 116.917 10.2836C117.363 10.9771 117.587 11.7765 117.587 12.6817C117.587 13.387 117.446 14.0071 117.164 14.542C116.882 15.071 116.494 15.5059 116 15.8468C115.512 16.1819 114.954 16.4199 114.325 16.561V16.7373C115.012 16.7667 115.656 16.9607 116.256 17.3192C116.861 17.6778 117.352 18.1803 117.728 18.8269C118.104 19.4675 118.292 20.2316 118.292 21.1192C118.292 22.0772 118.054 22.9325 117.578 23.6848C117.108 24.4313 116.411 25.022 115.488 25.4569C114.566 25.8919 113.428 26.1094 112.076 26.1094H104.362ZM108.18 22.9883H111.292C112.356 22.9883 113.132 22.7855 113.619 22.3799C114.107 21.9685 114.351 21.4219 114.351 20.7401C114.351 20.2404 114.231 19.7996 113.99 19.4176C113.749 19.0355 113.405 18.7357 112.958 18.5183C112.517 18.3008 111.991 18.1921 111.38 18.1921H108.18V22.9883ZM108.18 15.6088H111.01C111.533 15.6088 111.997 15.5177 112.403 15.3355C112.814 15.1474 113.137 14.8829 113.373 14.542C113.613 14.2011 113.734 13.7926 113.734 13.3165C113.734 12.664 113.502 12.138 113.037 11.7383C112.579 11.3386 111.927 11.1388 111.08 11.1388H108.18V15.6088ZM126.824 26.3739C125.455 26.3739 124.271 26.0829 123.271 25.501C122.278 24.9133 121.511 24.0962 120.97 23.05C120.429 21.9979 120.159 20.7783 120.159 19.3911C120.159 17.9922 120.429 16.7696 120.97 15.7234C121.511 14.6713 122.278 13.8543 123.271 13.2724C124.271 12.6846 125.455 12.3907 126.824 12.3907C128.194 12.3907 129.375 12.6846 130.369 13.2724C131.368 13.8543 132.138 14.6713 132.679 15.7234C133.219 16.7696 133.49 17.9922 133.49 19.3911C133.49 20.7783 133.219 21.9979 132.679 23.05C132.138 24.0962 131.368 24.9133 130.369 25.501C129.375 26.0829 128.194 26.3739 126.824 26.3739ZM126.842 23.4644C127.465 23.4644 127.985 23.2881 128.403 22.9354C128.82 22.5769 129.134 22.089 129.346 21.4718C129.563 20.8547 129.672 20.1523 129.672 19.3647C129.672 18.577 129.563 17.8747 129.346 17.2575C129.134 16.6403 128.82 16.1525 128.403 15.7939C127.985 15.4354 127.465 15.2561 126.842 15.2561C126.213 15.2561 125.684 15.4354 125.255 15.7939C124.832 16.1525 124.512 16.6403 124.294 17.2575C124.082 17.8747 123.977 18.577 123.977 19.3647C123.977 20.1523 124.082 20.8547 124.294 21.4718C124.512 22.089 124.832 22.5769 125.255 22.9354C125.684 23.2881 126.213 23.4644 126.842 23.4644ZM143.135 12.5671V15.3884H134.98V12.5671H143.135ZM136.831 9.32254H140.587V21.9479C140.587 22.2947 140.64 22.5651 140.746 22.7591C140.852 22.9471 140.999 23.0794 141.187 23.1558C141.381 23.2322 141.604 23.2704 141.857 23.2704C142.033 23.2704 142.209 23.2557 142.386 23.2263C142.562 23.1911 142.697 23.1646 142.791 23.147L143.382 25.9419C143.194 26.0006 142.929 26.0682 142.589 26.1446C142.248 26.2269 141.833 26.2769 141.345 26.2945C140.44 26.3298 139.647 26.2093 138.965 25.933C138.289 25.6568 137.763 25.2277 137.387 24.6458C137.011 24.0639 136.825 23.3292 136.831 22.4417V9.32254Z" fill="#181C30"/>
<defs>
<linearGradient id="paint0_linear_1103_6816" x1="11.884" y1="6.94446" x2="-0.460339" y2="20.383" gradientUnits="userSpaceOnUse">
<stop stop-color="#006AFF"/>
<stop offset="1" stop-color="#004099"/>
</linearGradient>
<linearGradient id="paint1_linear_1103_6816" x1="14.3123" y1="21.8257" x2="37.9562" y2="17.4368" gradientUnits="userSpaceOnUse">
<stop stop-color="#57EBB9"/>
<stop offset="1" stop-color="#318569"/>
</linearGradient>
</defs>
</svg>
